<?xml version="1.0" encoding="UTF-8"?>
<svg width="21px" height="22px" viewBox="0 0 21 22" version="1.1" xmlns="http://www.w3.org/2000/svg" xmlns:xlink="http://www.w3.org/1999/xlink">
    <!-- Generator: Sketch Beta 45 (43276) - http://www.bohemiancoding.com/sketch -->
    <title>Page 1</title>
    <desc>Created with Sketch Beta.</desc>
    <defs></defs>
    <g id="主页" stroke="none" stroke-width="1" fill="none" fill-rule="evenodd" stroke-linecap="round">
        <g id="签约宝－2-3－商户详情－基本信息" transform="translate(-334.000000, -163.000000)" stroke="#FF8100">
            <g id="店铺详情" transform="translate(-4.000000, 76.000000)">
                <g id="Page-1" transform="translate(348.500000, 98.000000) rotate(-90.000000) translate(-348.500000, -98.000000) translate(338.000000, 88.000000)">
                    <path d="M15.1567465,17.5 L3.38438528,17.5 C1.98700736,17.5 0.842472241,16.3683333 0.842472241,14.9866667 L0.842472241,3.34666667 C0.842472241,1.965 1.98700736,0.833333333 3.38438528,0.833333333 L15.1567465,0.833333333 C16.55581,0.833333333 17.6986595,1.965 17.6986595,3.34666667 L17.6986595,14.9866667 C17.6986595,16.3683333 16.55581,17.5 15.1567465,17.5 Z" id="Stroke-1"></path>
                    <path d="M20.388907,5.99866667 L20.388907,15.5736667 C20.388907,17.982 18.3965057,19.9536667 15.9607866,19.9536667 L6.2752214,19.9536667" id="Stroke-3"></path>
                    <path d="M5.05685619,9.16666667 L13.4849498,9.16666667" id="Stroke-5"></path>
                    <path d="M9.27090301,5 L9.27090301,13.3333333" id="Stroke-7"></path>
                </g>
            </g>
        </g>
    </g>
</svg>