<?xml version="1.0" encoding="UTF-8"?>
<svg width="45px" height="45px" viewBox="0 0 45 45" version="1.1" xmlns="http://www.w3.org/2000/svg" xmlns:xlink="http://www.w3.org/1999/xlink">
    <!-- Generator: Sketch Beta 42 (36644) - http://www.bohemiancoding.com/sketch -->
    <title>京东钱包logo</title>
    <desc>Created with Sketch Beta.</desc>
    <defs></defs>
    <g id="主页" stroke="none" stroke-width="1" fill="none" fill-rule="evenodd">
        <g id="签约宝－2-3－商户详情－交易数据" transform="translate(-34.000000, -437.000000)">
            <g id="京东钱包logo" transform="translate(34.000000, 436.000000)">
                <rect id="Rectangle-9" fill="#E84040" x="0" y="1.47058824" width="44.8076923" height="44.1176471" rx="6"></rect>
                <polygon id="Fill-4" fill="#FFFFFF" points="10.1228679 29.52019 11.5518801 29.52019 11.5518801 28.2707053 6.34290004 28.2707053 6.34290004 29.1143744 6.34290004 29.52019 6.34290004 29.6777105 7.63633237 29.6777105 7.63633237 31.0206396 5.86837036 31.0206396 5.86837036 32.208718 7.63633237 32.208718 7.63633237 37.1158824 12.0291214 35.3324298 12.0291214 34.3125513 10.1228679 34.980011 10.1228679 32.208718 12.0291214 32.208718 12.0291214 31.0206396 10.1228679 31.0206396"></polygon>
                <path d="M21.8418528,27.3234463 L21.8418528,26.0793013 L20.3884362,26.0793013 L20.3884362,24.5334644 L17.8883427,24.5334644 L17.8883427,26.0793013 L16.529832,26.0793013 L16.529832,23.9007126 L13.8616194,23.9007126 L13.8616194,26.0793013 L12.5763219,26.0793013 L12.5763219,27.3234463 L13.9836414,27.3234463 C13.986353,27.462278 13.9999109,27.8013475 14.0405849,28.2685694 L12.5763219,28.2685694 L12.5763219,29.520724 L14.1924344,29.520724 C14.3795347,30.7355008 14.7374656,32.2065821 15.409942,33.3199051 C15.5780611,33.5975683 15.7516034,33.8618824 15.9332804,34.1101774 C14.8540644,35.0553005 13.7043467,35.8589221 12.9017137,35.8989697 L12.9017137,36.6812325 C12.9017137,36.6812325 14.4744406,36.6598738 16.7467599,35.0793291 C17.9290167,36.2860963 19.4176841,36.9669053 21.4920567,36.9402069 L21.4920567,36.2273599 C21.4920567,36.2273599 19.6020728,36.3848804 17.9832486,34.1956123 C17.9724023,34.1822631 17.9642675,34.1662441 17.9534211,34.1528949 C19.8271354,32.6177374 21.0826054,31.146656 21.348342,30.4257994 L18.696399,30.3483741 C18.696399,30.3483741 18.1269634,31.6005287 17.2945027,32.7005024 C16.9880921,31.7073222 16.8145498,30.5272533 16.7169323,29.520724 L21.8418528,29.520724 L21.8418528,28.2685694 L16.6220264,28.2685694 C16.5949104,27.8040174 16.5894872,27.462278 16.5867756,27.3234463 L21.8418528,27.3234463 Z" id="Fill-6" fill="#FFFFFF"></path>
                <path d="M10.0116924,23.8993776 L7.31094059,23.8993776 C7.40855812,25.9551538 5.69211648,27.0658069 5.69211648,27.0658069 L5.69211648,27.8400602 C5.69211648,27.8400602 6.64388744,27.8694284 7.94816615,27.0177498 C8.03764889,26.9590133 8.12442004,26.8949372 8.20847958,26.830861 L12.0291214,26.830861 L12.0291214,25.6427826 L9.28498405,25.6427826 C9.85713126,24.7457166 10.0116924,23.8993776 10.0116924,23.8993776" id="Fill-8" fill="#FFFFFF"></path>
                <path d="M27.5606134,31.4988078 L30.822666,31.4988078 L30.822666,29.0131875 L27.5606134,29.0131875 L27.5606134,31.4988078 Z M28.3198609,35.677106 C28.3198609,35.677106 27.5579018,35.6957949 27.5579018,35.0229954 L27.5579018,32.6708672 L33.3471639,32.6708672 L33.3471639,29.0131875 L33.3471639,27.8384583 L30.822666,27.8384583 L27.5579018,27.8384583 L26.652228,27.8384583 L24.9140936,27.8384583 L24.9140936,35.44483 C24.9140936,35.44483 24.9059588,35.5382744 24.9140936,35.6744362 L24.9140936,35.677106 L24.9140936,35.677106 C24.9439211,36.0749121 25.147291,36.8438257 26.2373535,36.9265908 L26.2373535,36.93994 L39.1120216,36.93994 L39.1120216,35.677106 L28.3198609,35.677106 Z" id="Fill-10" fill="#FFFFFF"></path>
                <path d="M27.2154269,26.0806362 L35.4668201,26.0806362 L35.4668201,32.0050093 C35.4668201,32.0050093 35.3881838,33.2251258 34.0215383,33.2251258 L34.0215383,33.9913696 L35.7352684,33.9913696 C35.7352684,33.9913696 37.8259105,34.002049 37.97776,32.2105869 L37.991318,32.2105869 L37.991318,26.0806362 L37.991318,25.1889099 L37.991318,24.8364912 L28.1671979,24.8364912 C28.4247997,24.2945138 28.4329345,23.8993776 28.4329345,23.8993776 L25.8758974,23.8993776 C25.5423709,26.2381567 23.1751457,27.0497878 23.1751457,27.0497878 L23.1751457,27.8400602 C23.1751457,27.8400602 24.3357097,27.909476 26.3666967,26.7027087 C26.7029349,26.5024708 26.9795179,26.2915535 27.2154269,26.0806362" id="Fill-12" fill="#FFFFFF"></path>
                <polygon id="Fill-13" fill="#FFFFFF" points="21.6512275 9.69529943 14.9183292 9.69529943 14.9183292 8.75818589 12.4101009 8.75818589 12.4101009 9.69529943 5.67720269 9.69529943 5.67720269 10.947454 21.6512275 10.947454"></polygon>
                <path d="M8.34351717,14.6040657 L18.9512892,14.6040657 L18.9512892,13.1356542 L8.34351717,13.1356542 L8.34351717,14.6040657 Z M21.1747997,15.8241822 L21.1747997,11.9155377 L6.15254585,11.9155377 L6.15254585,15.8241822 L12.4082028,15.8241822 L12.4082028,20.2481056 C12.4082028,20.2481056 12.1397546,21.0917748 11.4727015,21.0917748 L10.9791906,21.0917748 L10.9791906,21.9835011 L12.4082028,21.9835011 C12.4082028,21.9835011 14.7591584,22.0368979 14.9055847,20.4056261 L14.9191427,20.4056261 L14.9191427,15.8241822 L21.1747997,15.8241822 Z" id="Fill-14" fill="#FFFFFF"></path>
                <path d="M5.61320897,21.4994592 L7.23203308,21.4994592 C9.80533974,19.5771751 10.3124086,16.6216631 10.3124086,16.6216631 L7.58182924,16.6216631 C7.3432086,19.6706194 5.61320897,21.4994592 5.61320897,21.4994592" id="Fill-15" fill="#FFFFFF"></path>
                <path d="M19.8886887,16.6213961 L16.998125,16.6213961 C17.5865418,19.5128319 20.048673,21.4991923 20.048673,21.4991923 L21.762403,21.4991923 C20.4933751,20.3111138 19.8886887,16.6213961 19.8886887,16.6213961" id="Fill-16" fill="#FFFFFF"></path>
                <path d="M28.5704125,9.69529943 L29.0205378,8.75818589 L26.7807577,8.75818589 L26.3306324,9.69529943 L22.9845203,9.69529943 L22.9845203,10.947454 L25.7340808,10.947454 L23.3993948,15.8252501 L24.4460717,15.8252501 L25.6364633,15.8252501 L29.7174186,15.8252501 L29.7174186,19.9661706 C29.7174186,19.9661706 29.5764154,21.0768237 28.7819172,21.0768237 L28.432121,21.0768237 L28.432121,22.000588 L30.1458511,22.000588 C30.1458511,22.000588 32.1578569,22.1314102 32.2202237,20.1397102 L32.2283585,20.1397102 L32.2283585,15.8252501 L38.4514762,15.8252501 L38.4514762,14.6051336 L32.2283585,14.6051336 L32.2283585,11.9166056 L29.7174186,11.9166056 L29.7174186,14.6051336 L26.2194569,14.6051336 L27.9711493,10.947454 L39.1185294,10.947454 L39.1185294,9.69529943 L28.5704125,9.69529943 Z" id="Fill-17" fill="#FFFFFF"></path>
                <path d="M22.9853338,21.4994592 L24.509252,21.4994592 C24.509252,21.4994592 24.9214149,21.2031071 25.9382642,20.0310477 C26.9551135,18.8563185 27.6384362,16.6216631 27.6384362,16.6216631 L24.8753177,16.6216631 C24.7478726,19.5130989 22.9853338,21.4994592 22.9853338,21.4994592" id="Fill-18" fill="#FFFFFF"></path>
                <path d="M34.2913423,16.6213961 C34.9095867,19.4193876 37.4367962,21.4991923 37.4367962,21.4991923 L38.976984,21.4991923 C37.2280032,19.4354066 37.0381913,16.6213961 37.0381913,16.6213961 L34.2913423,16.6213961 Z" id="Fill-19" fill="#FFFFFF"></path>
            </g>
        </g>
    </g>
</svg>