<?xml version="1.0" encoding="UTF-8"?>
<svg width="45px" height="45px" viewBox="0 0 45 45" version="1.1" xmlns="http://www.w3.org/2000/svg" xmlns:xlink="http://www.w3.org/1999/xlink">
    <!-- Generator: Sketch Beta 42 (36644) - http://www.bohemiancoding.com/sketch -->
    <title>wechat logo</title>
    <desc>Created with Sketch Beta.</desc>
    <defs></defs>
    <g id="主页" stroke="none" stroke-width="1" fill="none" fill-rule="evenodd">
        <g id="签约宝－2-3－商户详情－交易数据" transform="translate(-34.000000, -272.000000)">
            <g id="wechat-logo" transform="translate(34.000000, 272.000000)">
                <rect id="Rectangle-3" fill="#1EC622" x="0" y="0" width="44.8076923" height="44.1176471" rx="6"></rect>
                <path d="M18.3321066,24.4243676 C18.1968209,24.493723 18.0453728,24.5342783 17.8837483,24.5342783 C17.5108148,24.5342783 17.18577,24.323861 17.0151664,24.0123494 L16.9505166,23.8659977 L14.2310351,17.7568427 C14.2017033,17.6898383 14.1831464,17.615193 14.1831464,17.5417233 C14.1831464,17.2601873 14.4064276,17.0321373 14.6811892,17.0321373 C14.7931291,17.0321373 14.8960899,17.0697538 14.9792966,17.1332316 L18.1878418,19.4725078 C18.4224966,19.6294392 18.7026456,19.7217171 19.0031475,19.7217171 C19.1833288,19.7217171 19.354531,19.6876272 19.5143597,19.6282636 L34.6040997,12.7509092 C31.8995834,9.48650213 27.444734,7.35294118 22.4038462,7.35294118 C14.1544132,7.35294118 7.46794872,13.059482 7.46794872,20.0984699 C7.46794872,23.9388796 9.47987414,27.3954835 12.6285584,29.7324086 C12.8811715,29.9169646 13.0463876,30.2202477 13.0463876,30.5623227 C13.0463876,30.67576 13.0230418,30.7797931 12.9943086,30.8873528 C12.7428927,31.8483369 12.3400288,33.3864991 12.3208733,33.4587933 C12.2897456,33.5786959 12.2406596,33.7044761 12.2406596,33.8314318 C12.2406596,34.1129678 12.4639409,34.3410179 12.7387025,34.3410179 C12.8470507,34.3410179 12.9350463,34.2998748 13.0266335,34.2458011 L16.2962368,32.3132533 C16.5422651,32.1674894 16.8026601,32.0775624 17.0893939,32.0775624 C17.2420393,32.0775624 17.3892971,32.1016605 17.5287731,32.1451546 C19.0540292,32.5942016 20.6996058,32.8439986 22.4038462,32.8439986 C30.6526805,32.8439986 37.3397436,27.1374578 37.3397436,20.0984699 C37.3397436,17.9666722 36.7231761,15.9583037 35.6384963,14.1926791 L18.4410534,24.3597142 L18.3321066,24.4243676 Z" id="Fill-1" fill="#FFFFFF"></path>
            </g>
        </g>
    </g>
</svg>