<?xml version="1.0" encoding="UTF-8"?>
<svg width="45px" height="45px" viewBox="0 0 45 45" version="1.1" xmlns="http://www.w3.org/2000/svg" xmlns:xlink="http://www.w3.org/1999/xlink">
    <!-- Generator: Sketch Beta 42 (36644) - http://www.bohemiancoding.com/sketch -->
    <title>支付宝logo</title>
    <desc>Created with Sketch Beta.</desc>
    <defs></defs>
    <g id="主页" stroke="none" stroke-width="1" fill="none" fill-rule="evenodd">
        <g id="签约宝－2-3－商户详情－交易数据" transform="translate(-34.000000, -354.000000)" fill="#289AD7">
            <g id="支付宝logo" transform="translate(34.000000, 354.000000)">
                <path d="M10.87868,23.9650735 C9.76011499,24.0743336 7.66089494,24.5628447 6.51286491,25.5631893 C3.07109947,28.5193589 5.13033548,33.9268153 12.0938925,33.9268153 C16.1411139,33.9268153 20.1865918,31.3754596 23.363463,27.2923369 C18.8451507,25.1184513 15.01511,23.5625 10.87868,23.9650735" id="Fill-1"></path>
                <path d="M36.8527868,27.7014591 C43.2984693,29.829159 44.7602694,29.9433594 44.7602694,29.9433594 L44.7602694,7.06772748 C44.7602694,3.16371783 41.5538751,0 37.5928402,0 L7.16987005,0 C3.20796343,0 0,3.16371783 0,7.06772748 L0,37.0507813 C0,40.9532399 3.20796343,44.1176471 7.16987005,44.1176471 L37.5928402,44.1176471 C41.5538751,44.1176471 44.7602694,40.9539292 44.7602694,37.0507813 L44.7602694,36.7615464 C44.7602694,36.7615464 33.1178826,31.9779412 27.238602,29.191636 C23.2962224,33.9721392 18.2092417,36.8751149 12.9288499,36.8751149 C3.99799686,36.8751149 0.965254165,29.1723346 5.19344982,24.1012753 C6.11604659,22.9972426 7.68454829,21.9410041 10.1190415,21.3488626 C13.9261262,20.4272748 19.9874853,21.9248621 25.6667876,23.7722886 C26.6878916,21.9167624 27.547374,19.8747702 28.1882228,17.6992762 L10.6836416,17.6992762 L10.6836416,15.9512868 L19.7089337,15.9512868 L19.7089337,12.8193934 L8.77760027,12.8193934 L8.77760027,11.0707146 L19.7089337,11.0707146 L19.7089337,6.60213695 C19.7089337,6.60213695 19.7089337,5.84880515 20.4832757,5.84880515 L24.8942472,5.84880515 L24.8942472,11.0707146 L35.7024903,11.0707146 L35.7024903,12.8193934 L24.8942472,12.8193934 L24.8942472,15.9512868 L33.7170039,15.9512868 C32.8729804,19.3596048 31.5898299,22.4975299 29.9812279,25.2521829 C32.6581824,26.2062845 35.0625132,27.1110409 36.8530193,27.7014591 L36.8527868,27.7014591 Z" id="Fill-3"></path>
            </g>
        </g>
    </g>
</svg>