<?xml version="1.0" encoding="UTF-8"?>
<svg width="22px" height="30px" viewBox="0 0 22 30" version="1.1" xmlns="http://www.w3.org/2000/svg" xmlns:xlink="http://www.w3.org/1999/xlink">
    <!-- Generator: Sketch Beta 42 (36644) - http://www.bohemiancoding.com/sketch -->
    <title>Page 1</title>
    <desc>Created with Sketch Beta.</desc>
    <defs></defs>
    <g id="主页" stroke="none" stroke-width="1" fill="none" fill-rule="evenodd">
        <g id="签约宝－2-3－商户详情－基本信息" transform="translate(-34.000000, -312.000000)" fill="#A7A9AE">
            <g id="店铺详情" transform="translate(-8.000000, 152.000000)">
                <path d="M53,160 C46.924848,160 42,164.925081 42,170.999068 C42,177.075152 51.1416195,189.3331 53,189.3331 C54.7733367,189.3331 64,177.075152 64,170.999068 C64,164.924149 59.075152,160 53,160 L53,160 Z M53,165.702823 C50.0744954,165.702823 47.7037555,168.073796 47.7037555,170.999068 C47.7037555,173.924573 50.0744954,176.296245 53,176.296245 C55.9243397,176.296245 58.2962445,173.924573 58.2962445,170.999068 C58.2962445,168.073796 55.9255046,165.702823 53,165.702823 L53,165.702823 Z" id="Page-1"></path>
            </g>
        </g>
    </g>
</svg>